<?xml version="1.0" standalone="no"?>
<!DOCTYPE svg PUBLIC "-//W3C//DTD SVG 20010904//EN"
 "http://www.w3.org/TR/2001/REC-SVG-20010904/DTD/svg10.dtd">
<svg version="1.0" xmlns="http://www.w3.org/2000/svg"
 width="1280.000000pt" height="766.000000pt" viewBox="0 0 1280.000000 766.000000"
 preserveAspectRatio="xMidYMid meet">
<g transform="translate(0.000000,766.000000) scale(0.100000,-0.100000)"
fill="#000000" stroke="none">
<path d="M1635 7648 c-143 -26 -302 -70 -388 -108 -233 -102 -443 -286 -577
-505 -63 -103 -564 -1189 -598 -1297 -34 -105 -72 -312 -72 -387 0 -57 30
-246 55 -341 82 -318 322 -624 615 -783 125 -68 1926 -899 2010 -927 47 -16
125 -36 174 -45 114 -20 335 -20 449 0 317 56 613 239 809 500 63 83 85 103
73 66 -3 -12 -85 -191 -182 -399 -96 -207 -186 -406 -199 -442 -43 -118 -27
-269 39 -382 33 -57 122 -140 183 -171 60 -30 2680 -1246 2712 -1258 12 -5 52
-13 87 -19 140 -22 285 27 390 134 56 57 69 80 178 316 65 140 124 261 131
268 13 13 11 14 3211 -1355 1171 -501 1199 -513 1229 -513 66 0 197 70 256
137 53 60 69 92 332 663 204 441 248 552 248 619 0 45 -46 170 -77 210 -33 41
-269 161 -2830 1444 -927 464 -1463 737 -1463 746 0 8 52 128 116 265 136 294
142 308 150 389 16 162 -69 340 -203 425 -61 38 -2734 1276 -2788 1291 -99 27
-243 9 -345 -44 -43 -22 -116 -90 -150 -140 -15 -22 -110 -218 -210 -435 -184
-396 -211 -451 -217 -433 -2 5 6 47 17 94 86 359 20 722 -189 1033 -96 144
-270 304 -424 390 -126 71 -1926 899 -2022 931 -185 61 -400 87 -530 63z"/>
</g>
</svg>
